<svg width="75" height="15" viewBox="0 0 75 15" fill="none" xmlns="http://www.w3.org/2000/svg">
<mask id="mask0_12_9" style="mask-type:alpha" maskUnits="userSpaceOnUse" x="0" y="0" width="75" height="15">
<path d="M0 1.64888C0 1.13318 0.156067 0.732836 0.468201 0.447844C0.793905 0.149281 1.24175 0 1.81173 0L9.71007 12.0104L9.85257 11.8882L9.26223 10.9111V0C9.8865 0 10.3547 0.135711 10.6668 0.407132C10.9925 0.678552 11.1554 1.07211 11.1554 1.58781V13.1096C11.1554 13.5439 10.9993 13.9035 10.6872 14.1885C10.3886 14.4735 10.0019 14.616 9.52686 14.616L1.44531 2.341L1.30282 2.46314L1.89316 3.44026V13.0282C1.89316 13.5439 1.73031 13.9374 1.4046 14.2089C1.09247 14.4803 0.624267 14.616 0 14.616V1.64888Z" fill="black"/>
<path d="M19.3688 14.616C18.2424 14.616 17.2313 14.3989 16.3357 13.9646C15.4535 13.5167 14.7614 12.9061 14.2593 12.1325C13.7572 11.3454 13.5061 10.4768 13.5061 9.52686V5.04842C13.5061 4.09845 13.7572 3.24348 14.2593 2.4835C14.7614 1.70995 15.4535 1.10604 16.3357 0.671766C17.2313 0.223922 18.2424 0 19.3688 0C20.5087 0 21.5198 0.223922 22.4019 0.671766C23.2976 1.10604 23.9965 1.70995 24.4986 2.4835C25.0008 3.24348 25.2518 4.09845 25.2518 5.04842V9.52686C25.2518 10.4768 25.0008 11.3454 24.4986 12.1325C23.9965 12.9061 23.2976 13.5167 22.4019 13.9646C21.5062 14.3989 20.4952 14.616 19.3688 14.616ZM19.3688 12.9468C20.6309 12.9468 21.6148 12.6346 22.3205 12.0104C23.0262 11.3861 23.379 10.5515 23.379 9.50651V5.08914C23.379 4.04417 23.0262 3.21633 22.3205 2.60564C21.6148 1.98137 20.6309 1.66924 19.3688 1.66924C18.1202 1.66924 17.1431 1.98137 16.4374 2.60564C15.7317 3.21633 15.3789 4.04417 15.3789 5.08914V9.50651C15.3789 10.5515 15.7317 11.3861 16.4374 12.0104C17.1431 12.6346 18.1202 12.9468 19.3688 12.9468Z" fill="black"/>
<path d="M37.5228 14.616C37.0343 14.616 36.6339 14.5006 36.3218 14.2699C36.0097 14.0257 35.7993 13.6864 35.6908 13.2521L32.3319 0.183209C32.5355 0.0610697 32.7933 0 33.1055 0C33.499 0 33.8315 0.101783 34.1029 0.305349C34.3744 0.495344 34.5508 0.759978 34.6322 1.09925L36.8511 10.7483L36.5254 11.9493L36.6475 11.99L39.9249 0.631053C39.9792 0.427488 40.081 0.271421 40.2303 0.162853C40.3931 0.0542842 40.5831 0 40.8002 0C41.0038 0 41.187 0.0542842 41.3499 0.162853C41.5127 0.271421 41.6213 0.427488 41.6756 0.631053L44.5051 10.8297L44.2201 12.0714L44.3423 12.1121L46.9683 1.09925C47.0497 0.759978 47.2193 0.495344 47.4772 0.305349C47.7486 0.101783 48.0743 0 48.4543 0C48.7664 0 49.0379 0.0610697 49.2686 0.183209L45.9097 13.2521C45.8012 13.6864 45.584 14.0257 45.2583 14.2699C44.9462 14.5006 44.5458 14.616 44.0573 14.616L40.5763 2.30029L40.4542 2.341L40.7188 3.29776L37.5228 14.616Z" fill="black"/>
<path d="M50.6714 14.616C50.2643 14.5346 49.9454 14.3649 49.7147 14.1071C49.484 13.8357 49.3686 13.51 49.3686 13.13C49.3686 12.8721 49.4297 12.6007 49.5518 12.3157L54.417 0.610697C54.5799 0.203566 54.892 0 55.3534 0C55.7877 0 56.093 0.203566 56.2695 0.610697L61.1347 12.3157C61.2568 12.6007 61.3179 12.8721 61.3179 13.13C61.3179 13.4964 61.2025 13.8153 60.9718 14.0867C60.7411 14.3582 60.4222 14.5346 60.0151 14.616L58.2644 10.3615H52.4221L50.6714 14.616ZM57.6741 8.7126L55.0481 2.05601L54.8852 2.11708L55.2516 3.05348L53.0124 8.7126H57.6741Z" fill="black"/>
<path d="M63.654 1.0789C63.654 0.821048 63.7422 0.610697 63.9186 0.447844C64.1086 0.271421 64.3461 0.183209 64.6311 0.183209H70.2495C71.5659 0.183209 72.6108 0.569984 73.3844 1.34353C74.1715 2.10351 74.5651 3.12134 74.5651 4.39701C74.5651 5.9984 73.8662 7.13158 72.4683 7.79656V7.85763C73.079 8.11548 73.5472 8.50904 73.873 9.03831C74.1987 9.55401 74.3615 10.1851 74.3615 10.9315V13.0282C74.3615 13.5439 74.1987 13.9374 73.873 14.2089C73.5472 14.4803 73.0723 14.616 72.448 14.616V11.0536C72.448 10.2529 72.2648 9.649 71.8984 9.24187C71.5455 8.82117 71.0162 8.61082 70.3106 8.61082H65.5471V13.0282C65.5471 13.5439 65.3843 13.9374 65.0586 14.2089C64.7464 14.4803 64.2782 14.616 63.654 14.616V1.0789ZM70.1884 6.96194C70.9348 6.96194 71.5252 6.73123 71.9594 6.26982C72.4073 5.8084 72.6312 5.17735 72.6312 4.37666C72.6312 3.5624 72.4209 2.93813 72.0002 2.50386C71.5795 2.06958 70.9755 1.85245 70.1884 1.85245H65.5471V6.96194H70.1884Z" fill="black"/>
</mask>
<g mask="url(#mask0_12_9)">
<rect y="6.78552" width="74.6407" height="8.48189" fill="#FFD600"/>
<rect width="74.6407" height="6.78552" fill="#315EFF"/>
</g>
</svg>
